<mxfile host="app.diagrams.net" modified="2023-06-10T05:49:38.463Z" agent="Mozilla/5.0 (Windows NT 10.0; Win64; x64) AppleWebKit/537.36 (KHTML, like Gecko) Chrome/114.0.0.0 Safari/537.36" etag="7HJTc9P0s-QivGn5sUth" version="21.3.8" type="device" pages="2">
  <diagram id="-wMyV3FJXtilWohWUk54" name="Плагин сервер">
    <mxGraphModel dx="3390" dy="1868" grid="1" gridSize="9.8425" guides="1" tooltips="1" connect="1" arrows="1" fold="1" page="1" pageScale="1" pageWidth="1654" pageHeight="2336" math="0" shadow="0">
      <root>
        <mxCell id="0" />
        <mxCell id="1" parent="0" />
        <mxCell id="ePhQMTm9lXjfTtW40u9A-8" value="Плагин" style="whiteSpace=wrap;html=1;" parent="1" vertex="1">
          <mxGeometry x="157.48" y="19.689999999999998" width="118.11" height="39.37" as="geometry" />
        </mxCell>
        <mxCell id="ePhQMTm9lXjfTtW40u9A-24" value="" style="endArrow=none;html=1;rounded=0;strokeWidth=1;jumpStyle=none;perimeterSpacing=0;fixDash=0;" parent="1" edge="1">
          <mxGeometry width="50" height="50" relative="1" as="geometry">
            <mxPoint x="217" y="78.95" as="sourcePoint" />
            <mxPoint x="217" y="58.95" as="targetPoint" />
          </mxGeometry>
        </mxCell>
        <mxCell id="ePhQMTm9lXjfTtW40u9A-26" value="" style="endArrow=none;html=1;rounded=0;strokeWidth=1;jumpStyle=none;perimeterSpacing=0;fixDash=0;entryX=0.5;entryY=1;entryDx=0;entryDy=0;" parent="1" edge="1">
          <mxGeometry width="50" height="50" relative="1" as="geometry">
            <mxPoint x="216.4325" y="108.5825" as="sourcePoint" />
            <mxPoint x="216.4325" y="88.5825" as="targetPoint" />
          </mxGeometry>
        </mxCell>
        <mxCell id="ePhQMTm9lXjfTtW40u9A-27" value="" style="endArrow=none;html=1;rounded=0;strokeWidth=1;jumpStyle=none;perimeterSpacing=0;fixDash=0;entryX=0.5;entryY=1;entryDx=0;entryDy=0;" parent="1" edge="1">
          <mxGeometry width="50" height="50" relative="1" as="geometry">
            <mxPoint x="216.445" y="138.115" as="sourcePoint" />
            <mxPoint x="216.445" y="118.115" as="targetPoint" />
          </mxGeometry>
        </mxCell>
        <mxCell id="ePhQMTm9lXjfTtW40u9A-28" value="" style="endArrow=none;html=1;rounded=0;strokeWidth=1;jumpStyle=none;perimeterSpacing=0;fixDash=0;entryX=0.5;entryY=1;entryDx=0;entryDy=0;" parent="1" edge="1">
          <mxGeometry width="50" height="50" relative="1" as="geometry">
            <mxPoint x="216.435" y="167.64499999999998" as="sourcePoint" />
            <mxPoint x="216.435" y="147.64499999999998" as="targetPoint" />
          </mxGeometry>
        </mxCell>
        <mxCell id="ePhQMTm9lXjfTtW40u9A-29" value="" style="endArrow=none;html=1;rounded=0;strokeWidth=1;jumpStyle=none;perimeterSpacing=0;fixDash=0;entryX=0.5;entryY=1;entryDx=0;entryDy=0;" parent="1" edge="1">
          <mxGeometry width="50" height="50" relative="1" as="geometry">
            <mxPoint x="216.4475" y="197.17749999999995" as="sourcePoint" />
            <mxPoint x="216.4475" y="177.1775" as="targetPoint" />
          </mxGeometry>
        </mxCell>
        <mxCell id="ePhQMTm9lXjfTtW40u9A-30" value="" style="endArrow=none;html=1;rounded=0;strokeWidth=1;jumpStyle=none;perimeterSpacing=0;fixDash=0;entryX=0.5;entryY=1;entryDx=0;entryDy=0;" parent="1" edge="1">
          <mxGeometry width="50" height="50" relative="1" as="geometry">
            <mxPoint x="216.4375" y="285.7475" as="sourcePoint" />
            <mxPoint x="216.4375" y="265.7475" as="targetPoint" />
          </mxGeometry>
        </mxCell>
        <mxCell id="ePhQMTm9lXjfTtW40u9A-31" value="" style="endArrow=none;html=1;rounded=0;strokeWidth=1;jumpStyle=none;perimeterSpacing=0;fixDash=0;entryX=0.5;entryY=1;entryDx=0;entryDy=0;" parent="1" edge="1">
          <mxGeometry width="50" height="50" relative="1" as="geometry">
            <mxPoint x="216.45" y="315.28" as="sourcePoint" />
            <mxPoint x="216.45" y="295.28" as="targetPoint" />
          </mxGeometry>
        </mxCell>
        <mxCell id="ePhQMTm9lXjfTtW40u9A-32" value="" style="endArrow=openThin;html=1;rounded=0;endFill=0;" parent="1" edge="1">
          <mxGeometry width="50" height="50" relative="1" as="geometry">
            <mxPoint x="217" y="97.95" as="sourcePoint" />
            <mxPoint x="394" y="97.95" as="targetPoint" />
          </mxGeometry>
        </mxCell>
        <mxCell id="ePhQMTm9lXjfTtW40u9A-35" value="&amp;lt;&amp;lt;создание процесса&amp;gt;&amp;gt;" style="edgeLabel;html=1;align=center;verticalAlign=middle;resizable=0;points=[];" parent="ePhQMTm9lXjfTtW40u9A-32" vertex="1" connectable="0">
          <mxGeometry x="0.3823" relative="1" as="geometry">
            <mxPoint x="-34" y="-10" as="offset" />
          </mxGeometry>
        </mxCell>
        <mxCell id="ePhQMTm9lXjfTtW40u9A-36" value="Сервер" style="whiteSpace=wrap;html=1;" parent="1" vertex="1">
          <mxGeometry x="393.7025" y="78.74249999999999" width="118.11" height="39.37" as="geometry" />
        </mxCell>
        <mxCell id="ePhQMTm9lXjfTtW40u9A-37" value="" style="endArrow=none;html=1;rounded=0;strokeWidth=1;jumpStyle=none;perimeterSpacing=0;fixDash=0;entryX=0.5;entryY=1;entryDx=0;entryDy=0;" parent="1" edge="1">
          <mxGeometry width="50" height="50" relative="1" as="geometry">
            <mxPoint x="452.63750000000005" y="138.1175" as="sourcePoint" />
            <mxPoint x="452.63750000000005" y="118.11749999999999" as="targetPoint" />
          </mxGeometry>
        </mxCell>
        <mxCell id="ePhQMTm9lXjfTtW40u9A-38" value="" style="endArrow=none;html=1;rounded=0;strokeWidth=1;jumpStyle=none;perimeterSpacing=0;fixDash=0;entryX=0.5;entryY=1;entryDx=0;entryDy=0;" parent="1" edge="1">
          <mxGeometry width="50" height="50" relative="1" as="geometry">
            <mxPoint x="453" y="157.95" as="sourcePoint" />
            <mxPoint x="452.65" y="147.64999999999998" as="targetPoint" />
          </mxGeometry>
        </mxCell>
        <mxCell id="ePhQMTm9lXjfTtW40u9A-40" value="" style="endArrow=none;html=1;rounded=0;strokeWidth=1;jumpStyle=none;perimeterSpacing=0;fixDash=0;entryX=0.5;entryY=1;entryDx=0;entryDy=0;" parent="1" edge="1">
          <mxGeometry width="50" height="50" relative="1" as="geometry">
            <mxPoint x="452.6625000000001" y="581.1824999999997" as="sourcePoint" />
            <mxPoint x="452.6625000000001" y="561.1824999999997" as="targetPoint" />
          </mxGeometry>
        </mxCell>
        <mxCell id="ePhQMTm9lXjfTtW40u9A-41" value="" style="endArrow=blockThin;html=1;rounded=0;endFill=1;entryX=0;entryY=0;entryDx=0;entryDy=0;" parent="1" target="ePhQMTm9lXjfTtW40u9A-46" edge="1">
          <mxGeometry width="50" height="50" relative="1" as="geometry">
            <mxPoint x="216.7025" y="158.48250000000002" as="sourcePoint" />
            <mxPoint x="453" y="157.95" as="targetPoint" />
          </mxGeometry>
        </mxCell>
        <mxCell id="ePhQMTm9lXjfTtW40u9A-42" value="инициализировать(грамматики)" style="edgeLabel;html=1;align=center;verticalAlign=middle;resizable=0;points=[];" parent="ePhQMTm9lXjfTtW40u9A-41" vertex="1" connectable="0">
          <mxGeometry x="0.3823" relative="1" as="geometry">
            <mxPoint x="-55" y="-10" as="offset" />
          </mxGeometry>
        </mxCell>
        <mxCell id="ePhQMTm9lXjfTtW40u9A-43" value="" style="endArrow=none;html=1;rounded=0;strokeWidth=1;jumpStyle=none;perimeterSpacing=0;fixDash=0;entryX=0.5;entryY=1;entryDx=0;entryDy=0;" parent="1" edge="1">
          <mxGeometry width="50" height="50" relative="1" as="geometry">
            <mxPoint x="452.6625" y="600.7024999999996" as="sourcePoint" />
            <mxPoint x="452.6625" y="590.7024999999998" as="targetPoint" />
          </mxGeometry>
        </mxCell>
        <mxCell id="ePhQMTm9lXjfTtW40u9A-46" value="" style="whiteSpace=wrap;html=1;" parent="1" vertex="1">
          <mxGeometry x="447.83" y="157.48000000000002" width="9.85" height="39.37" as="geometry" />
        </mxCell>
        <mxCell id="ePhQMTm9lXjfTtW40u9A-51" value="" style="whiteSpace=wrap;html=1;" parent="1" vertex="1">
          <mxGeometry x="447.83" y="265.75" width="9.85" height="285.43" as="geometry" />
        </mxCell>
        <mxCell id="ePhQMTm9lXjfTtW40u9A-65" value="" style="endArrow=openThin;html=1;rounded=0;endFill=0;entryX=0;entryY=0;entryDx=0;entryDy=0;" parent="1" edge="1">
          <mxGeometry width="50" height="50" relative="1" as="geometry">
            <mxPoint x="217.0125" y="433.3025" as="sourcePoint" />
            <mxPoint x="448.3099999999999" y="432.77" as="targetPoint" />
          </mxGeometry>
        </mxCell>
        <mxCell id="ePhQMTm9lXjfTtW40u9A-66" value="установить(ключ-значение)" style="edgeLabel;html=1;align=center;verticalAlign=middle;resizable=0;points=[];" parent="ePhQMTm9lXjfTtW40u9A-65" vertex="1" connectable="0">
          <mxGeometry x="0.3823" relative="1" as="geometry">
            <mxPoint x="-55" y="-10" as="offset" />
          </mxGeometry>
        </mxCell>
        <mxCell id="ePhQMTm9lXjfTtW40u9A-67" value="" style="endArrow=none;html=1;rounded=0;endFill=0;dashed=1;" parent="1" edge="1">
          <mxGeometry width="50" height="50" relative="1" as="geometry">
            <mxPoint x="118" y="463" as="sourcePoint" />
            <mxPoint x="512" y="462" as="targetPoint" />
          </mxGeometry>
        </mxCell>
        <mxCell id="ePhQMTm9lXjfTtW40u9A-68" value="" style="endArrow=openThin;html=1;rounded=0;endFill=0;" parent="1" edge="1">
          <mxGeometry width="50" height="50" relative="1" as="geometry">
            <mxPoint x="448.31" y="491.54" as="sourcePoint" />
            <mxPoint x="217.48" y="491.54" as="targetPoint" />
          </mxGeometry>
        </mxCell>
        <mxCell id="ePhQMTm9lXjfTtW40u9A-69" value="сообщить(информация)" style="edgeLabel;html=1;align=center;verticalAlign=middle;resizable=0;points=[];" parent="ePhQMTm9lXjfTtW40u9A-68" vertex="1" connectable="0">
          <mxGeometry x="0.3823" relative="1" as="geometry">
            <mxPoint x="33" y="-10" as="offset" />
          </mxGeometry>
        </mxCell>
        <mxCell id="ePhQMTm9lXjfTtW40u9A-70" value="" style="endArrow=none;html=1;rounded=0;endFill=0;dashed=1;" parent="1" edge="1">
          <mxGeometry width="50" height="50" relative="1" as="geometry">
            <mxPoint x="118" y="521" as="sourcePoint" />
            <mxPoint x="512" y="521" as="targetPoint" />
          </mxGeometry>
        </mxCell>
        <mxCell id="ePhQMTm9lXjfTtW40u9A-71" value="" style="endArrow=openThin;html=1;rounded=0;endFill=0;entryX=0;entryY=1;entryDx=0;entryDy=0;" parent="1" edge="1">
          <mxGeometry width="50" height="50" relative="1" as="geometry">
            <mxPoint x="217" y="551.18" as="sourcePoint" />
            <mxPoint x="447.8299999999999" y="551.3599999999997" as="targetPoint" />
          </mxGeometry>
        </mxCell>
        <mxCell id="ePhQMTm9lXjfTtW40u9A-72" value="приостановить моделирование()" style="edgeLabel;html=1;align=center;verticalAlign=middle;resizable=0;points=[];" parent="ePhQMTm9lXjfTtW40u9A-71" vertex="1" connectable="0">
          <mxGeometry x="0.3823" relative="1" as="geometry">
            <mxPoint x="-52" y="-10" as="offset" />
          </mxGeometry>
        </mxCell>
        <mxCell id="ePhQMTm9lXjfTtW40u9A-73" value="" style="whiteSpace=wrap;html=1;" parent="1" vertex="1">
          <mxGeometry x="447.83" y="600.39" width="9.85" height="157.48" as="geometry" />
        </mxCell>
        <mxCell id="ePhQMTm9lXjfTtW40u9A-76" value="" style="endArrow=openThin;html=1;rounded=0;endFill=0;entryX=0;entryY=1;entryDx=0;entryDy=0;" parent="1" edge="1">
          <mxGeometry width="50" height="50" relative="1" as="geometry">
            <mxPoint x="217.0025" y="600.3924999999999" as="sourcePoint" />
            <mxPoint x="447.8324999999999" y="600.5724999999996" as="targetPoint" />
          </mxGeometry>
        </mxCell>
        <mxCell id="ePhQMTm9lXjfTtW40u9A-77" value="возобновить моделирование()" style="edgeLabel;html=1;align=center;verticalAlign=middle;resizable=0;points=[];" parent="ePhQMTm9lXjfTtW40u9A-76" vertex="1" connectable="0">
          <mxGeometry x="0.3823" relative="1" as="geometry">
            <mxPoint x="-52" y="-10" as="offset" />
          </mxGeometry>
        </mxCell>
        <mxCell id="ePhQMTm9lXjfTtW40u9A-78" value="" style="endArrow=openThin;html=1;rounded=0;endFill=0;entryX=0;entryY=1;entryDx=0;entryDy=0;" parent="1" edge="1">
          <mxGeometry width="50" height="50" relative="1" as="geometry">
            <mxPoint x="217.005" y="698.8249999999999" as="sourcePoint" />
            <mxPoint x="447.8349999999999" y="699.0049999999997" as="targetPoint" />
          </mxGeometry>
        </mxCell>
        <mxCell id="ePhQMTm9lXjfTtW40u9A-79" value="остановить моделирование()" style="edgeLabel;html=1;align=center;verticalAlign=middle;resizable=0;points=[];" parent="ePhQMTm9lXjfTtW40u9A-78" vertex="1" connectable="0">
          <mxGeometry x="0.3823" relative="1" as="geometry">
            <mxPoint x="-52" y="-10" as="offset" />
          </mxGeometry>
        </mxCell>
        <mxCell id="ePhQMTm9lXjfTtW40u9A-81" value="" style="endArrow=none;html=1;rounded=0;strokeWidth=1;jumpStyle=none;perimeterSpacing=0;fixDash=0;entryX=0.5;entryY=1;entryDx=0;entryDy=0;" parent="1" edge="1">
          <mxGeometry width="50" height="50" relative="1" as="geometry">
            <mxPoint x="452.57500000000005" y="787.5549999999998" as="sourcePoint" />
            <mxPoint x="452.57500000000005" y="767.5549999999998" as="targetPoint" />
          </mxGeometry>
        </mxCell>
        <mxCell id="ePhQMTm9lXjfTtW40u9A-82" value="" style="endArrow=none;html=1;rounded=0;strokeWidth=1;jumpStyle=none;perimeterSpacing=0;fixDash=0;entryX=0.5;entryY=1;entryDx=0;entryDy=0;" parent="1" edge="1">
          <mxGeometry width="50" height="50" relative="1" as="geometry">
            <mxPoint x="452.5875000000001" y="817.0874999999996" as="sourcePoint" />
            <mxPoint x="452.5875000000001" y="797.0874999999996" as="targetPoint" />
          </mxGeometry>
        </mxCell>
        <mxCell id="ePhQMTm9lXjfTtW40u9A-83" value="" style="endArrow=none;html=1;rounded=0;strokeWidth=1;jumpStyle=none;perimeterSpacing=0;fixDash=0;entryX=0.5;entryY=1;entryDx=0;entryDy=0;" parent="1" edge="1">
          <mxGeometry width="50" height="50" relative="1" as="geometry">
            <mxPoint x="452.5900000000001" y="846.6099999999994" as="sourcePoint" />
            <mxPoint x="452.5900000000001" y="826.6099999999994" as="targetPoint" />
          </mxGeometry>
        </mxCell>
        <mxCell id="ePhQMTm9lXjfTtW40u9A-84" value="" style="shape=umlDestroy;whiteSpace=wrap;html=1;strokeWidth=3;targetShapes=umlLifeline;" parent="1" vertex="1">
          <mxGeometry x="437.75" y="836.45" width="30" height="30" as="geometry" />
        </mxCell>
        <mxCell id="ePhQMTm9lXjfTtW40u9A-87" value="" style="endArrow=blockThin;html=1;rounded=0;endFill=1;" parent="1" edge="1">
          <mxGeometry width="50" height="50" relative="1" as="geometry">
            <mxPoint x="216.82750000000001" y="826.9075" as="sourcePoint" />
            <mxPoint x="452.83" y="826.7700000000001" as="targetPoint" />
          </mxGeometry>
        </mxCell>
        <mxCell id="ePhQMTm9lXjfTtW40u9A-88" value="остановить сервер()" style="edgeLabel;html=1;align=center;verticalAlign=middle;resizable=0;points=[];" parent="ePhQMTm9lXjfTtW40u9A-87" vertex="1" connectable="0">
          <mxGeometry x="0.3823" relative="1" as="geometry">
            <mxPoint x="-52" y="-10" as="offset" />
          </mxGeometry>
        </mxCell>
        <mxCell id="ePhQMTm9lXjfTtW40u9A-102" value="" style="endArrow=none;html=1;rounded=0;strokeWidth=1;jumpStyle=none;perimeterSpacing=0;fixDash=0;entryX=0.5;entryY=1;entryDx=0;entryDy=0;" parent="1" edge="1">
          <mxGeometry width="50" height="50" relative="1" as="geometry">
            <mxPoint x="216.41" y="344.8" as="sourcePoint" />
            <mxPoint x="216.41" y="324.8" as="targetPoint" />
          </mxGeometry>
        </mxCell>
        <mxCell id="ePhQMTm9lXjfTtW40u9A-103" value="" style="endArrow=none;html=1;rounded=0;strokeWidth=1;jumpStyle=none;perimeterSpacing=0;fixDash=0;entryX=0.5;entryY=1;entryDx=0;entryDy=0;" parent="1" edge="1">
          <mxGeometry width="50" height="50" relative="1" as="geometry">
            <mxPoint x="216.4" y="374.33" as="sourcePoint" />
            <mxPoint x="216.4" y="354.33" as="targetPoint" />
          </mxGeometry>
        </mxCell>
        <mxCell id="ePhQMTm9lXjfTtW40u9A-104" value="" style="endArrow=none;html=1;rounded=0;strokeWidth=1;jumpStyle=none;perimeterSpacing=0;fixDash=0;entryX=0.5;entryY=1;entryDx=0;entryDy=0;" parent="1" edge="1">
          <mxGeometry width="50" height="50" relative="1" as="geometry">
            <mxPoint x="216.4125" y="403.86249999999995" as="sourcePoint" />
            <mxPoint x="216.4125" y="383.8625" as="targetPoint" />
          </mxGeometry>
        </mxCell>
        <mxCell id="ePhQMTm9lXjfTtW40u9A-105" value="" style="endArrow=none;html=1;rounded=0;strokeWidth=1;jumpStyle=none;perimeterSpacing=0;fixDash=0;entryX=0.5;entryY=1;entryDx=0;entryDy=0;" parent="1" edge="1">
          <mxGeometry width="50" height="50" relative="1" as="geometry">
            <mxPoint x="216.4025" y="433.3825" as="sourcePoint" />
            <mxPoint x="216.4025" y="413.3825" as="targetPoint" />
          </mxGeometry>
        </mxCell>
        <mxCell id="ePhQMTm9lXjfTtW40u9A-106" value="" style="endArrow=none;html=1;rounded=0;strokeWidth=1;jumpStyle=none;perimeterSpacing=0;fixDash=0;entryX=0.5;entryY=1;entryDx=0;entryDy=0;" parent="1" edge="1">
          <mxGeometry width="50" height="50" relative="1" as="geometry">
            <mxPoint x="216.415" y="462.91499999999996" as="sourcePoint" />
            <mxPoint x="216.415" y="442.91499999999996" as="targetPoint" />
          </mxGeometry>
        </mxCell>
        <mxCell id="ePhQMTm9lXjfTtW40u9A-107" value="" style="endArrow=none;html=1;rounded=0;strokeWidth=1;jumpStyle=none;perimeterSpacing=0;fixDash=0;entryX=0.5;entryY=1;entryDx=0;entryDy=0;" parent="1" edge="1">
          <mxGeometry width="50" height="50" relative="1" as="geometry">
            <mxPoint x="216.4025" y="492.4425" as="sourcePoint" />
            <mxPoint x="216.4025" y="472.4425" as="targetPoint" />
          </mxGeometry>
        </mxCell>
        <mxCell id="ePhQMTm9lXjfTtW40u9A-108" value="" style="endArrow=none;html=1;rounded=0;strokeWidth=1;jumpStyle=none;perimeterSpacing=0;fixDash=0;entryX=0.5;entryY=1;entryDx=0;entryDy=0;" parent="1" edge="1">
          <mxGeometry width="50" height="50" relative="1" as="geometry">
            <mxPoint x="216.3925" y="521.9725" as="sourcePoint" />
            <mxPoint x="216.3925" y="501.97249999999997" as="targetPoint" />
          </mxGeometry>
        </mxCell>
        <mxCell id="ePhQMTm9lXjfTtW40u9A-109" value="" style="endArrow=none;html=1;rounded=0;strokeWidth=1;jumpStyle=none;perimeterSpacing=0;fixDash=0;entryX=0.5;entryY=1;entryDx=0;entryDy=0;" parent="1" edge="1">
          <mxGeometry width="50" height="50" relative="1" as="geometry">
            <mxPoint x="216.405" y="551.5049999999999" as="sourcePoint" />
            <mxPoint x="216.405" y="531.505" as="targetPoint" />
          </mxGeometry>
        </mxCell>
        <mxCell id="ePhQMTm9lXjfTtW40u9A-110" value="" style="endArrow=none;html=1;rounded=0;strokeWidth=1;jumpStyle=none;perimeterSpacing=0;fixDash=0;entryX=0.5;entryY=1;entryDx=0;entryDy=0;" parent="1" edge="1">
          <mxGeometry width="50" height="50" relative="1" as="geometry">
            <mxPoint x="216.395" y="581.025" as="sourcePoint" />
            <mxPoint x="216.395" y="561.025" as="targetPoint" />
          </mxGeometry>
        </mxCell>
        <mxCell id="ePhQMTm9lXjfTtW40u9A-111" value="" style="endArrow=none;html=1;rounded=0;strokeWidth=1;jumpStyle=none;perimeterSpacing=0;fixDash=0;entryX=0.5;entryY=1;entryDx=0;entryDy=0;" parent="1" edge="1">
          <mxGeometry width="50" height="50" relative="1" as="geometry">
            <mxPoint x="216.4075" y="610.5574999999999" as="sourcePoint" />
            <mxPoint x="216.4075" y="590.5574999999999" as="targetPoint" />
          </mxGeometry>
        </mxCell>
        <mxCell id="ePhQMTm9lXjfTtW40u9A-112" value="" style="endArrow=none;html=1;rounded=0;strokeWidth=1;jumpStyle=none;perimeterSpacing=0;fixDash=0;entryX=0.5;entryY=1;entryDx=0;entryDy=0;" parent="1" edge="1">
          <mxGeometry width="50" height="50" relative="1" as="geometry">
            <mxPoint x="216.405" y="640.075" as="sourcePoint" />
            <mxPoint x="216.405" y="620.075" as="targetPoint" />
          </mxGeometry>
        </mxCell>
        <mxCell id="ePhQMTm9lXjfTtW40u9A-113" value="" style="endArrow=none;html=1;rounded=0;strokeWidth=1;jumpStyle=none;perimeterSpacing=0;fixDash=0;entryX=0.5;entryY=1;entryDx=0;entryDy=0;" parent="1" edge="1">
          <mxGeometry width="50" height="50" relative="1" as="geometry">
            <mxPoint x="216.395" y="669.605" as="sourcePoint" />
            <mxPoint x="216.395" y="649.605" as="targetPoint" />
          </mxGeometry>
        </mxCell>
        <mxCell id="ePhQMTm9lXjfTtW40u9A-114" value="" style="endArrow=none;html=1;rounded=0;strokeWidth=1;jumpStyle=none;perimeterSpacing=0;fixDash=0;entryX=0.5;entryY=1;entryDx=0;entryDy=0;" parent="1" edge="1">
          <mxGeometry width="50" height="50" relative="1" as="geometry">
            <mxPoint x="216.4075" y="699.1375" as="sourcePoint" />
            <mxPoint x="216.4075" y="679.1375" as="targetPoint" />
          </mxGeometry>
        </mxCell>
        <mxCell id="ePhQMTm9lXjfTtW40u9A-115" value="" style="endArrow=none;html=1;rounded=0;strokeWidth=1;jumpStyle=none;perimeterSpacing=0;fixDash=0;entryX=0.5;entryY=1;entryDx=0;entryDy=0;" parent="1" edge="1">
          <mxGeometry width="50" height="50" relative="1" as="geometry">
            <mxPoint x="216.3975" y="728.6575" as="sourcePoint" />
            <mxPoint x="216.3975" y="708.6575" as="targetPoint" />
          </mxGeometry>
        </mxCell>
        <mxCell id="ePhQMTm9lXjfTtW40u9A-116" value="" style="endArrow=none;html=1;rounded=0;strokeWidth=1;jumpStyle=none;perimeterSpacing=0;fixDash=0;entryX=0.5;entryY=1;entryDx=0;entryDy=0;" parent="1" edge="1">
          <mxGeometry width="50" height="50" relative="1" as="geometry">
            <mxPoint x="216.41" y="758.19" as="sourcePoint" />
            <mxPoint x="216.41" y="738.19" as="targetPoint" />
          </mxGeometry>
        </mxCell>
        <mxCell id="ePhQMTm9lXjfTtW40u9A-117" value="" style="endArrow=none;html=1;rounded=0;strokeWidth=1;jumpStyle=none;perimeterSpacing=0;fixDash=0;entryX=0.5;entryY=1;entryDx=0;entryDy=0;" parent="1" edge="1">
          <mxGeometry width="50" height="50" relative="1" as="geometry">
            <mxPoint x="216.37749999999997" y="787.3975" as="sourcePoint" />
            <mxPoint x="216.37749999999997" y="767.3975" as="targetPoint" />
          </mxGeometry>
        </mxCell>
        <mxCell id="ePhQMTm9lXjfTtW40u9A-118" value="" style="endArrow=none;html=1;rounded=0;strokeWidth=1;jumpStyle=none;perimeterSpacing=0;fixDash=0;entryX=0.5;entryY=1;entryDx=0;entryDy=0;" parent="1" edge="1">
          <mxGeometry width="50" height="50" relative="1" as="geometry">
            <mxPoint x="216.36749999999998" y="816.9275" as="sourcePoint" />
            <mxPoint x="216.36749999999998" y="796.9275" as="targetPoint" />
          </mxGeometry>
        </mxCell>
        <mxCell id="ePhQMTm9lXjfTtW40u9A-119" value="" style="endArrow=none;html=1;rounded=0;strokeWidth=1;jumpStyle=none;perimeterSpacing=0;fixDash=0;entryX=0.5;entryY=1;entryDx=0;entryDy=0;" parent="1" edge="1">
          <mxGeometry width="50" height="50" relative="1" as="geometry">
            <mxPoint x="216.37999999999997" y="846.4599999999999" as="sourcePoint" />
            <mxPoint x="216.37999999999997" y="826.46" as="targetPoint" />
          </mxGeometry>
        </mxCell>
        <mxCell id="ePhQMTm9lXjfTtW40u9A-120" value="" style="endArrow=none;html=1;rounded=0;strokeWidth=1;jumpStyle=none;perimeterSpacing=0;fixDash=0;entryX=0.5;entryY=1;entryDx=0;entryDy=0;" parent="1" edge="1">
          <mxGeometry width="50" height="50" relative="1" as="geometry">
            <mxPoint x="216.36999999999998" y="875.98" as="sourcePoint" />
            <mxPoint x="216.36999999999998" y="855.98" as="targetPoint" />
          </mxGeometry>
        </mxCell>
        <mxCell id="ePhQMTm9lXjfTtW40u9A-121" value="" style="endArrow=none;html=1;rounded=0;strokeWidth=1;jumpStyle=none;perimeterSpacing=0;fixDash=0;entryX=0.5;entryY=1;entryDx=0;entryDy=0;" parent="1" edge="1">
          <mxGeometry width="50" height="50" relative="1" as="geometry">
            <mxPoint x="216.38249999999996" y="905.5124999999999" as="sourcePoint" />
            <mxPoint x="216.38249999999996" y="885.5124999999999" as="targetPoint" />
          </mxGeometry>
        </mxCell>
        <mxCell id="ePhQMTm9lXjfTtW40u9A-122" value="" style="endArrow=none;html=1;rounded=0;strokeWidth=1;jumpStyle=none;perimeterSpacing=0;fixDash=0;entryX=0.5;entryY=1;entryDx=0;entryDy=0;" parent="1" edge="1">
          <mxGeometry width="50" height="50" relative="1" as="geometry">
            <mxPoint x="216.38" y="935.3499999999999" as="sourcePoint" />
            <mxPoint x="216.38" y="915.3499999999999" as="targetPoint" />
          </mxGeometry>
        </mxCell>
        <mxCell id="ePhQMTm9lXjfTtW40u9A-128" value="loop" style="shape=umlFrame;whiteSpace=wrap;html=1;pointerEvents=0;recursiveResize=0;container=1;collapsible=0;width=59;height=30;" parent="1" vertex="1">
          <mxGeometry x="49.21" y="295.27" width="501.97" height="354.33" as="geometry" />
        </mxCell>
        <mxCell id="ePhQMTm9lXjfTtW40u9A-127" value="alt" style="shape=umlFrame;whiteSpace=wrap;html=1;pointerEvents=0;recursiveResize=0;container=1;collapsible=0;width=59;height=30;" parent="ePhQMTm9lXjfTtW40u9A-128" vertex="1">
          <mxGeometry x="68.79" y="19.62" width="393.81" height="315.02" as="geometry" />
        </mxCell>
        <mxCell id="ePhQMTm9lXjfTtW40u9A-53" value="" style="endArrow=openThin;html=1;rounded=0;endFill=0;exitX=0.005;exitY=0.199;exitDx=0;exitDy=0;exitPerimeter=0;" parent="ePhQMTm9lXjfTtW40u9A-127" edge="1">
          <mxGeometry width="50" height="50" relative="1" as="geometry">
            <mxPoint x="329.82924999999983" y="29.59314999999998" as="sourcePoint" />
            <mxPoint x="98.94999999999999" y="29.829999999999984" as="targetPoint" />
          </mxGeometry>
        </mxCell>
        <mxCell id="ePhQMTm9lXjfTtW40u9A-54" value="запросить(адрес ресурса)" style="edgeLabel;html=1;align=center;verticalAlign=middle;resizable=0;points=[];" parent="ePhQMTm9lXjfTtW40u9A-53" vertex="1" connectable="0">
          <mxGeometry x="0.3823" relative="1" as="geometry">
            <mxPoint x="46" y="-10" as="offset" />
          </mxGeometry>
        </mxCell>
        <mxCell id="ePhQMTm9lXjfTtW40u9A-57" value="" style="endArrow=openThin;html=1;rounded=0;endFill=0;entryX=0;entryY=0;entryDx=0;entryDy=0;" parent="ePhQMTm9lXjfTtW40u9A-127" edge="1">
          <mxGeometry width="50" height="50" relative="1" as="geometry">
            <mxPoint x="98.53" y="59.66" as="sourcePoint" />
            <mxPoint x="329.82749999999993" y="59.12749999999997" as="targetPoint" />
          </mxGeometry>
        </mxCell>
        <mxCell id="ePhQMTm9lXjfTtW40u9A-58" value="отправить(ресурс)" style="edgeLabel;html=1;align=center;verticalAlign=middle;resizable=0;points=[];" parent="ePhQMTm9lXjfTtW40u9A-57" vertex="1" connectable="0">
          <mxGeometry x="0.3823" relative="1" as="geometry">
            <mxPoint x="-42" y="-10" as="offset" />
          </mxGeometry>
        </mxCell>
        <mxCell id="ePhQMTm9lXjfTtW40u9A-59" value="" style="endArrow=none;html=1;rounded=0;endFill=0;dashed=1;" parent="ePhQMTm9lXjfTtW40u9A-127" edge="1">
          <mxGeometry width="50" height="50" relative="1" as="geometry">
            <mxPoint x="-0.18999999999999773" y="88.65" as="sourcePoint" />
            <mxPoint x="393.81" y="88.65" as="targetPoint" />
          </mxGeometry>
        </mxCell>
        <mxCell id="ePhQMTm9lXjfTtW40u9A-130" value="opt" style="shape=umlFrame;whiteSpace=wrap;html=1;pointerEvents=0;recursiveResize=0;container=1;collapsible=0;width=59;height=30;" parent="1" vertex="1">
          <mxGeometry x="118.11" y="669" width="393.7" height="59.34" as="geometry" />
        </mxCell>
        <mxCell id="ePhQMTm9lXjfTtW40u9A-138" value="loop" style="shape=umlFrame;whiteSpace=wrap;html=1;pointerEvents=0;recursiveResize=0;container=1;collapsible=0;width=59;height=29;" parent="1" vertex="1">
          <mxGeometry y="236.22" width="590.55" height="541.34" as="geometry" />
        </mxCell>
        <mxCell id="ePhQMTm9lXjfTtW40u9A-49" value="" style="endArrow=openThin;html=1;rounded=0;endFill=0;entryX=0;entryY=0;entryDx=0;entryDy=0;" parent="ePhQMTm9lXjfTtW40u9A-138" edge="1">
          <mxGeometry width="50" height="50" relative="1" as="geometry">
            <mxPoint x="216.5275" y="30.057500000000033" as="sourcePoint" />
            <mxPoint x="447.825" y="29.525000000000006" as="targetPoint" />
          </mxGeometry>
        </mxCell>
        <mxCell id="ePhQMTm9lXjfTtW40u9A-50" value="запуск моделирования(сценарий)" style="edgeLabel;html=1;align=center;verticalAlign=middle;resizable=0;points=[];" parent="ePhQMTm9lXjfTtW40u9A-49" vertex="1" connectable="0">
          <mxGeometry x="0.3823" relative="1" as="geometry">
            <mxPoint x="-42" y="-10" as="offset" />
          </mxGeometry>
        </mxCell>
        <mxCell id="ePhQMTm9lXjfTtW40u9A-139" value="" style="endArrow=none;html=1;rounded=0;strokeWidth=1;jumpStyle=none;perimeterSpacing=0;fixDash=0;entryX=0.5;entryY=1;entryDx=0;entryDy=0;" parent="1" edge="1">
          <mxGeometry width="50" height="50" relative="1" as="geometry">
            <mxPoint x="216.3175" y="226.46749999999997" as="sourcePoint" />
            <mxPoint x="216.3175" y="206.46749999999997" as="targetPoint" />
          </mxGeometry>
        </mxCell>
        <mxCell id="ePhQMTm9lXjfTtW40u9A-140" value="" style="endArrow=none;html=1;rounded=0;strokeWidth=1;jumpStyle=none;perimeterSpacing=0;fixDash=0;entryX=0.5;entryY=1;entryDx=0;entryDy=0;" parent="1" edge="1">
          <mxGeometry width="50" height="50" relative="1" as="geometry">
            <mxPoint x="216.32999999999998" y="255.99999999999994" as="sourcePoint" />
            <mxPoint x="216.32999999999998" y="236" as="targetPoint" />
          </mxGeometry>
        </mxCell>
        <mxCell id="ePhQMTm9lXjfTtW40u9A-141" value="" style="endArrow=none;html=1;rounded=0;strokeWidth=1;jumpStyle=none;perimeterSpacing=0;fixDash=0;entryX=0.5;entryY=1;entryDx=0;entryDy=0;" parent="1" edge="1">
          <mxGeometry width="50" height="50" relative="1" as="geometry">
            <mxPoint x="452.54999999999995" y="256" as="sourcePoint" />
            <mxPoint x="452.54999999999995" y="236" as="targetPoint" />
          </mxGeometry>
        </mxCell>
        <mxCell id="ePhQMTm9lXjfTtW40u9A-142" value="" style="endArrow=none;html=1;rounded=0;strokeWidth=1;jumpStyle=none;perimeterSpacing=0;fixDash=0;entryX=0.5;entryY=1;entryDx=0;entryDy=0;" parent="1" edge="1">
          <mxGeometry width="50" height="50" relative="1" as="geometry">
            <mxPoint x="452.5525" y="226.69249999999997" as="sourcePoint" />
            <mxPoint x="452.5525" y="206.69250000000002" as="targetPoint" />
          </mxGeometry>
        </mxCell>
      </root>
    </mxGraphModel>
  </diagram>
  <diagram id="QbCNWfdDVOXUd-pROmOJ" name="Развертка">
    <mxGraphModel dx="1291" dy="711" grid="1" gridSize="10" guides="1" tooltips="1" connect="1" arrows="1" fold="1" page="1" pageScale="1" pageWidth="3300" pageHeight="2339" math="0" shadow="0">
      <root>
        <mxCell id="0" />
        <mxCell id="1" parent="0" />
        <mxCell id="T4gieY2xEMDl2hnRcUfN-75" value="Разработчик" style="shape=umlActor;verticalLabelPosition=bottom;verticalAlign=top;html=1;outlineConnect=0;" parent="1" vertex="1">
          <mxGeometry x="40" y="41.05" width="30" height="60" as="geometry" />
        </mxCell>
        <mxCell id="T4gieY2xEMDl2hnRcUfN-77" value="" style="endArrow=none;html=1;rounded=0;strokeWidth=1;jumpStyle=none;perimeterSpacing=0;fixDash=0;" parent="1" edge="1">
          <mxGeometry width="50" height="50" relative="1" as="geometry">
            <mxPoint x="595.2399999999998" y="150" as="sourcePoint" />
            <mxPoint x="595.2399999999998" y="130" as="targetPoint" />
          </mxGeometry>
        </mxCell>
        <mxCell id="T4gieY2xEMDl2hnRcUfN-78" value="" style="endArrow=none;html=1;rounded=0;strokeWidth=1;jumpStyle=none;perimeterSpacing=0;fixDash=0;entryX=0.5;entryY=1;entryDx=0;entryDy=0;" parent="1" edge="1">
          <mxGeometry width="50" height="50" relative="1" as="geometry">
            <mxPoint x="594.6724999999999" y="179.6325" as="sourcePoint" />
            <mxPoint x="594.6724999999999" y="159.6325" as="targetPoint" />
          </mxGeometry>
        </mxCell>
        <mxCell id="T4gieY2xEMDl2hnRcUfN-79" value="" style="endArrow=none;html=1;rounded=0;strokeWidth=1;jumpStyle=none;perimeterSpacing=0;fixDash=0;entryX=0.5;entryY=1;entryDx=0;entryDy=0;" parent="1" edge="1">
          <mxGeometry width="50" height="50" relative="1" as="geometry">
            <mxPoint x="594.685" y="209.16500000000002" as="sourcePoint" />
            <mxPoint x="594.685" y="189.16500000000002" as="targetPoint" />
          </mxGeometry>
        </mxCell>
        <mxCell id="T4gieY2xEMDl2hnRcUfN-80" value="" style="endArrow=none;html=1;rounded=0;strokeWidth=1;jumpStyle=none;perimeterSpacing=0;fixDash=0;entryX=0.5;entryY=1;entryDx=0;entryDy=0;" parent="1" edge="1">
          <mxGeometry width="50" height="50" relative="1" as="geometry">
            <mxPoint x="594.6749999999997" y="238.69499999999994" as="sourcePoint" />
            <mxPoint x="594.6749999999997" y="218.695" as="targetPoint" />
          </mxGeometry>
        </mxCell>
        <mxCell id="T4gieY2xEMDl2hnRcUfN-81" value="" style="endArrow=none;html=1;rounded=0;strokeWidth=1;jumpStyle=none;perimeterSpacing=0;fixDash=0;entryX=0.5;entryY=1;entryDx=0;entryDy=0;" parent="1" edge="1">
          <mxGeometry width="50" height="50" relative="1" as="geometry">
            <mxPoint x="594.6875" y="268.22749999999996" as="sourcePoint" />
            <mxPoint x="594.6875" y="248.2275" as="targetPoint" />
          </mxGeometry>
        </mxCell>
        <mxCell id="T4gieY2xEMDl2hnRcUfN-82" value="" style="endArrow=none;html=1;rounded=0;strokeWidth=1;jumpStyle=none;perimeterSpacing=0;fixDash=0;entryX=0.5;entryY=1;entryDx=0;entryDy=0;" parent="1" edge="1">
          <mxGeometry width="50" height="50" relative="1" as="geometry">
            <mxPoint x="594.6774999999998" y="356.7975" as="sourcePoint" />
            <mxPoint x="594.6774999999998" y="336.7975" as="targetPoint" />
          </mxGeometry>
        </mxCell>
        <mxCell id="T4gieY2xEMDl2hnRcUfN-83" value="" style="endArrow=none;html=1;rounded=0;strokeWidth=1;jumpStyle=none;perimeterSpacing=0;fixDash=0;entryX=0.5;entryY=1;entryDx=0;entryDy=0;" parent="1" edge="1">
          <mxGeometry width="50" height="50" relative="1" as="geometry">
            <mxPoint x="594.5574999999999" y="297.5174999999999" as="sourcePoint" />
            <mxPoint x="594.5574999999999" y="277.5174999999999" as="targetPoint" />
          </mxGeometry>
        </mxCell>
        <mxCell id="T4gieY2xEMDl2hnRcUfN-84" value="" style="endArrow=none;html=1;rounded=0;strokeWidth=1;jumpStyle=none;perimeterSpacing=0;fixDash=0;entryX=0.5;entryY=1;entryDx=0;entryDy=0;" parent="1" edge="1">
          <mxGeometry width="50" height="50" relative="1" as="geometry">
            <mxPoint x="594.5699999999997" y="327.04999999999995" as="sourcePoint" />
            <mxPoint x="594.5699999999997" y="307.04999999999995" as="targetPoint" />
          </mxGeometry>
        </mxCell>
        <mxCell id="T4gieY2xEMDl2hnRcUfN-85" value="" style="endArrow=none;html=1;rounded=0;strokeWidth=1;jumpStyle=none;perimeterSpacing=0;fixDash=0;" parent="1" edge="1">
          <mxGeometry width="50" height="50" relative="1" as="geometry">
            <mxPoint x="595.2399999999998" y="390" as="sourcePoint" />
            <mxPoint x="595.2399999999998" y="370" as="targetPoint" />
          </mxGeometry>
        </mxCell>
        <mxCell id="T4gieY2xEMDl2hnRcUfN-86" value="" style="endArrow=none;html=1;rounded=0;strokeWidth=1;jumpStyle=none;perimeterSpacing=0;fixDash=0;entryX=0.5;entryY=1;entryDx=0;entryDy=0;" parent="1" edge="1">
          <mxGeometry width="50" height="50" relative="1" as="geometry">
            <mxPoint x="594.6724999999999" y="419.6325" as="sourcePoint" />
            <mxPoint x="594.6724999999999" y="399.6325" as="targetPoint" />
          </mxGeometry>
        </mxCell>
        <mxCell id="T4gieY2xEMDl2hnRcUfN-87" value="" style="endArrow=none;html=1;rounded=0;strokeWidth=1;jumpStyle=none;perimeterSpacing=0;fixDash=0;entryX=0.5;entryY=1;entryDx=0;entryDy=0;" parent="1" source="T4gieY2xEMDl2hnRcUfN-181" edge="1">
          <mxGeometry width="50" height="50" relative="1" as="geometry">
            <mxPoint x="594.685" y="449.165" as="sourcePoint" />
            <mxPoint x="594.685" y="429.165" as="targetPoint" />
          </mxGeometry>
        </mxCell>
        <mxCell id="T4gieY2xEMDl2hnRcUfN-88" value="" style="endArrow=none;html=1;rounded=0;strokeWidth=1;jumpStyle=none;perimeterSpacing=0;fixDash=0;entryX=0.5;entryY=1;entryDx=0;entryDy=0;" parent="1" edge="1">
          <mxGeometry width="50" height="50" relative="1" as="geometry">
            <mxPoint x="594.6749999999997" y="478.69499999999994" as="sourcePoint" />
            <mxPoint x="594.6749999999997" y="458.695" as="targetPoint" />
          </mxGeometry>
        </mxCell>
        <mxCell id="T4gieY2xEMDl2hnRcUfN-89" value="" style="endArrow=none;html=1;rounded=0;strokeWidth=1;jumpStyle=none;perimeterSpacing=0;fixDash=0;entryX=0.5;entryY=1;entryDx=0;entryDy=0;" parent="1" edge="1">
          <mxGeometry width="50" height="50" relative="1" as="geometry">
            <mxPoint x="594.6875" y="508.2274999999999" as="sourcePoint" />
            <mxPoint x="594.6875" y="488.22749999999996" as="targetPoint" />
          </mxGeometry>
        </mxCell>
        <mxCell id="T4gieY2xEMDl2hnRcUfN-90" value="" style="endArrow=none;html=1;rounded=0;strokeWidth=1;jumpStyle=none;perimeterSpacing=0;fixDash=0;entryX=0.5;entryY=1;entryDx=0;entryDy=0;" parent="1" edge="1">
          <mxGeometry width="50" height="50" relative="1" as="geometry">
            <mxPoint x="594.6774999999998" y="596.7975" as="sourcePoint" />
            <mxPoint x="594.6774999999998" y="576.7975" as="targetPoint" />
          </mxGeometry>
        </mxCell>
        <mxCell id="T4gieY2xEMDl2hnRcUfN-91" value="" style="endArrow=none;html=1;rounded=0;strokeWidth=1;jumpStyle=none;perimeterSpacing=0;fixDash=0;entryX=0.5;entryY=1;entryDx=0;entryDy=0;" parent="1" edge="1">
          <mxGeometry width="50" height="50" relative="1" as="geometry">
            <mxPoint x="594.5574999999999" y="537.5174999999999" as="sourcePoint" />
            <mxPoint x="594.5574999999999" y="517.5174999999999" as="targetPoint" />
          </mxGeometry>
        </mxCell>
        <mxCell id="T4gieY2xEMDl2hnRcUfN-92" value="" style="endArrow=none;html=1;rounded=0;strokeWidth=1;jumpStyle=none;perimeterSpacing=0;fixDash=0;entryX=0.5;entryY=1;entryDx=0;entryDy=0;" parent="1" edge="1">
          <mxGeometry width="50" height="50" relative="1" as="geometry">
            <mxPoint x="594.5699999999997" y="567.05" as="sourcePoint" />
            <mxPoint x="594.5699999999997" y="547.05" as="targetPoint" />
          </mxGeometry>
        </mxCell>
        <mxCell id="T4gieY2xEMDl2hnRcUfN-94" value="" style="endArrow=none;html=1;rounded=0;strokeWidth=1;jumpStyle=none;perimeterSpacing=0;fixDash=0;" parent="1" edge="1">
          <mxGeometry width="50" height="50" relative="1" as="geometry">
            <mxPoint x="55.67999999999995" y="150" as="sourcePoint" />
            <mxPoint x="55.67999999999995" y="130" as="targetPoint" />
          </mxGeometry>
        </mxCell>
        <mxCell id="T4gieY2xEMDl2hnRcUfN-95" value="" style="endArrow=none;html=1;rounded=0;strokeWidth=1;jumpStyle=none;perimeterSpacing=0;fixDash=0;entryX=0.5;entryY=1;entryDx=0;entryDy=0;" parent="1" edge="1">
          <mxGeometry width="50" height="50" relative="1" as="geometry">
            <mxPoint x="55.112499999999955" y="179.6325" as="sourcePoint" />
            <mxPoint x="55.112499999999955" y="159.6325" as="targetPoint" />
          </mxGeometry>
        </mxCell>
        <mxCell id="T4gieY2xEMDl2hnRcUfN-96" value="" style="endArrow=none;html=1;rounded=0;strokeWidth=1;jumpStyle=none;perimeterSpacing=0;fixDash=0;entryX=0.5;entryY=1;entryDx=0;entryDy=0;" parent="1" edge="1">
          <mxGeometry width="50" height="50" relative="1" as="geometry">
            <mxPoint x="55.124999999999886" y="209.16500000000002" as="sourcePoint" />
            <mxPoint x="55.124999999999886" y="189.16500000000002" as="targetPoint" />
          </mxGeometry>
        </mxCell>
        <mxCell id="T4gieY2xEMDl2hnRcUfN-97" value="" style="endArrow=none;html=1;rounded=0;strokeWidth=1;jumpStyle=none;perimeterSpacing=0;fixDash=0;entryX=0.5;entryY=1;entryDx=0;entryDy=0;" parent="1" edge="1">
          <mxGeometry width="50" height="50" relative="1" as="geometry">
            <mxPoint x="55.114999999999895" y="238.69499999999994" as="sourcePoint" />
            <mxPoint x="55.114999999999895" y="218.695" as="targetPoint" />
          </mxGeometry>
        </mxCell>
        <mxCell id="T4gieY2xEMDl2hnRcUfN-98" value="" style="endArrow=none;html=1;rounded=0;strokeWidth=1;jumpStyle=none;perimeterSpacing=0;fixDash=0;entryX=0.5;entryY=1;entryDx=0;entryDy=0;" parent="1" edge="1">
          <mxGeometry width="50" height="50" relative="1" as="geometry">
            <mxPoint x="55.12749999999994" y="268.22749999999996" as="sourcePoint" />
            <mxPoint x="55.12749999999994" y="248.22749999999996" as="targetPoint" />
          </mxGeometry>
        </mxCell>
        <mxCell id="T4gieY2xEMDl2hnRcUfN-99" value="" style="endArrow=none;html=1;rounded=0;strokeWidth=1;jumpStyle=none;perimeterSpacing=0;fixDash=0;entryX=0.5;entryY=1;entryDx=0;entryDy=0;" parent="1" edge="1">
          <mxGeometry width="50" height="50" relative="1" as="geometry">
            <mxPoint x="55.11749999999995" y="356.7975" as="sourcePoint" />
            <mxPoint x="55.11749999999995" y="336.7975" as="targetPoint" />
          </mxGeometry>
        </mxCell>
        <mxCell id="T4gieY2xEMDl2hnRcUfN-100" value="" style="endArrow=none;html=1;rounded=0;strokeWidth=1;jumpStyle=none;perimeterSpacing=0;fixDash=0;entryX=0.5;entryY=1;entryDx=0;entryDy=0;" parent="1" edge="1">
          <mxGeometry width="50" height="50" relative="1" as="geometry">
            <mxPoint x="54.997499999999945" y="297.5174999999999" as="sourcePoint" />
            <mxPoint x="54.997499999999945" y="277.5174999999999" as="targetPoint" />
          </mxGeometry>
        </mxCell>
        <mxCell id="T4gieY2xEMDl2hnRcUfN-101" value="" style="endArrow=none;html=1;rounded=0;strokeWidth=1;jumpStyle=none;perimeterSpacing=0;fixDash=0;entryX=0.5;entryY=1;entryDx=0;entryDy=0;" parent="1" edge="1">
          <mxGeometry width="50" height="50" relative="1" as="geometry">
            <mxPoint x="55.00999999999988" y="327.04999999999995" as="sourcePoint" />
            <mxPoint x="55.00999999999988" y="307.04999999999995" as="targetPoint" />
          </mxGeometry>
        </mxCell>
        <mxCell id="T4gieY2xEMDl2hnRcUfN-102" value="" style="endArrow=none;html=1;rounded=0;strokeWidth=1;jumpStyle=none;perimeterSpacing=0;fixDash=0;" parent="1" edge="1">
          <mxGeometry width="50" height="50" relative="1" as="geometry">
            <mxPoint x="55.67999999999995" y="390" as="sourcePoint" />
            <mxPoint x="55.67999999999995" y="370" as="targetPoint" />
          </mxGeometry>
        </mxCell>
        <mxCell id="T4gieY2xEMDl2hnRcUfN-103" value="" style="endArrow=none;html=1;rounded=0;strokeWidth=1;jumpStyle=none;perimeterSpacing=0;fixDash=0;entryX=0.5;entryY=1;entryDx=0;entryDy=0;" parent="1" edge="1">
          <mxGeometry width="50" height="50" relative="1" as="geometry">
            <mxPoint x="55.112499999999955" y="419.6325" as="sourcePoint" />
            <mxPoint x="55.112499999999955" y="399.6325" as="targetPoint" />
          </mxGeometry>
        </mxCell>
        <mxCell id="T4gieY2xEMDl2hnRcUfN-104" value="" style="endArrow=none;html=1;rounded=0;strokeWidth=1;jumpStyle=none;perimeterSpacing=0;fixDash=0;entryX=0.5;entryY=1;entryDx=0;entryDy=0;" parent="1" edge="1">
          <mxGeometry width="50" height="50" relative="1" as="geometry">
            <mxPoint x="55.124999999999886" y="449.165" as="sourcePoint" />
            <mxPoint x="55.124999999999886" y="429.165" as="targetPoint" />
          </mxGeometry>
        </mxCell>
        <mxCell id="T4gieY2xEMDl2hnRcUfN-105" value="" style="endArrow=none;html=1;rounded=0;strokeWidth=1;jumpStyle=none;perimeterSpacing=0;fixDash=0;entryX=0.5;entryY=1;entryDx=0;entryDy=0;" parent="1" edge="1">
          <mxGeometry width="50" height="50" relative="1" as="geometry">
            <mxPoint x="55.114999999999895" y="478.69499999999994" as="sourcePoint" />
            <mxPoint x="55.114999999999895" y="458.695" as="targetPoint" />
          </mxGeometry>
        </mxCell>
        <mxCell id="T4gieY2xEMDl2hnRcUfN-106" value="" style="endArrow=none;html=1;rounded=0;strokeWidth=1;jumpStyle=none;perimeterSpacing=0;fixDash=0;entryX=0.5;entryY=1;entryDx=0;entryDy=0;" parent="1" edge="1">
          <mxGeometry width="50" height="50" relative="1" as="geometry">
            <mxPoint x="55.12749999999994" y="508.22749999999996" as="sourcePoint" />
            <mxPoint x="55.12749999999994" y="488.22749999999996" as="targetPoint" />
          </mxGeometry>
        </mxCell>
        <mxCell id="T4gieY2xEMDl2hnRcUfN-107" value="" style="endArrow=none;html=1;rounded=0;strokeWidth=1;jumpStyle=none;perimeterSpacing=0;fixDash=0;entryX=0.5;entryY=1;entryDx=0;entryDy=0;" parent="1" edge="1">
          <mxGeometry width="50" height="50" relative="1" as="geometry">
            <mxPoint x="55.11749999999995" y="596.7975" as="sourcePoint" />
            <mxPoint x="55.11749999999995" y="576.7975" as="targetPoint" />
          </mxGeometry>
        </mxCell>
        <mxCell id="T4gieY2xEMDl2hnRcUfN-108" value="" style="endArrow=none;html=1;rounded=0;strokeWidth=1;jumpStyle=none;perimeterSpacing=0;fixDash=0;entryX=0.5;entryY=1;entryDx=0;entryDy=0;" parent="1" edge="1">
          <mxGeometry width="50" height="50" relative="1" as="geometry">
            <mxPoint x="54.997499999999945" y="537.5174999999999" as="sourcePoint" />
            <mxPoint x="54.997499999999945" y="517.5174999999999" as="targetPoint" />
          </mxGeometry>
        </mxCell>
        <mxCell id="T4gieY2xEMDl2hnRcUfN-109" value="" style="endArrow=none;html=1;rounded=0;strokeWidth=1;jumpStyle=none;perimeterSpacing=0;fixDash=0;entryX=0.5;entryY=1;entryDx=0;entryDy=0;" parent="1" edge="1">
          <mxGeometry width="50" height="50" relative="1" as="geometry">
            <mxPoint x="55.00999999999988" y="567.05" as="sourcePoint" />
            <mxPoint x="55.00999999999988" y="547.05" as="targetPoint" />
          </mxGeometry>
        </mxCell>
        <mxCell id="T4gieY2xEMDl2hnRcUfN-110" value="" style="endArrow=none;html=1;rounded=0;strokeWidth=1;jumpStyle=none;perimeterSpacing=0;fixDash=0;" parent="1" edge="1">
          <mxGeometry width="50" height="50" relative="1" as="geometry">
            <mxPoint x="175.67999999999995" y="150" as="sourcePoint" />
            <mxPoint x="175.67999999999995" y="130" as="targetPoint" />
          </mxGeometry>
        </mxCell>
        <mxCell id="T4gieY2xEMDl2hnRcUfN-111" value="" style="endArrow=none;html=1;rounded=0;strokeWidth=1;jumpStyle=none;perimeterSpacing=0;fixDash=0;entryX=0.5;entryY=1;entryDx=0;entryDy=0;" parent="1" edge="1">
          <mxGeometry width="50" height="50" relative="1" as="geometry">
            <mxPoint x="175.11249999999995" y="179.6325" as="sourcePoint" />
            <mxPoint x="175.11249999999995" y="159.6325" as="targetPoint" />
          </mxGeometry>
        </mxCell>
        <mxCell id="T4gieY2xEMDl2hnRcUfN-112" value="" style="endArrow=none;html=1;rounded=0;strokeWidth=1;jumpStyle=none;perimeterSpacing=0;fixDash=0;entryX=0.5;entryY=1;entryDx=0;entryDy=0;" parent="1" edge="1">
          <mxGeometry width="50" height="50" relative="1" as="geometry">
            <mxPoint x="175.1249999999999" y="209.16500000000002" as="sourcePoint" />
            <mxPoint x="175.1249999999999" y="189.16500000000002" as="targetPoint" />
          </mxGeometry>
        </mxCell>
        <mxCell id="T4gieY2xEMDl2hnRcUfN-113" value="" style="endArrow=none;html=1;rounded=0;strokeWidth=1;jumpStyle=none;perimeterSpacing=0;fixDash=0;entryX=0.5;entryY=1;entryDx=0;entryDy=0;" parent="1" edge="1">
          <mxGeometry width="50" height="50" relative="1" as="geometry">
            <mxPoint x="175.1149999999999" y="238.69499999999994" as="sourcePoint" />
            <mxPoint x="175.1149999999999" y="218.695" as="targetPoint" />
          </mxGeometry>
        </mxCell>
        <mxCell id="T4gieY2xEMDl2hnRcUfN-114" value="" style="endArrow=none;html=1;rounded=0;strokeWidth=1;jumpStyle=none;perimeterSpacing=0;fixDash=0;entryX=0.5;entryY=1;entryDx=0;entryDy=0;" parent="1" edge="1">
          <mxGeometry width="50" height="50" relative="1" as="geometry">
            <mxPoint x="175.12749999999994" y="268.22749999999996" as="sourcePoint" />
            <mxPoint x="175.12749999999994" y="248.22749999999996" as="targetPoint" />
          </mxGeometry>
        </mxCell>
        <mxCell id="T4gieY2xEMDl2hnRcUfN-115" value="" style="endArrow=none;html=1;rounded=0;strokeWidth=1;jumpStyle=none;perimeterSpacing=0;fixDash=0;entryX=0.5;entryY=1;entryDx=0;entryDy=0;" parent="1" edge="1">
          <mxGeometry width="50" height="50" relative="1" as="geometry">
            <mxPoint x="175.11749999999995" y="356.7975" as="sourcePoint" />
            <mxPoint x="175.11749999999995" y="336.7975" as="targetPoint" />
          </mxGeometry>
        </mxCell>
        <mxCell id="T4gieY2xEMDl2hnRcUfN-116" value="" style="endArrow=none;html=1;rounded=0;strokeWidth=1;jumpStyle=none;perimeterSpacing=0;fixDash=0;entryX=0.5;entryY=1;entryDx=0;entryDy=0;" parent="1" edge="1">
          <mxGeometry width="50" height="50" relative="1" as="geometry">
            <mxPoint x="174.99749999999995" y="297.5174999999999" as="sourcePoint" />
            <mxPoint x="174.99749999999995" y="277.5174999999999" as="targetPoint" />
          </mxGeometry>
        </mxCell>
        <mxCell id="T4gieY2xEMDl2hnRcUfN-117" value="" style="endArrow=none;html=1;rounded=0;strokeWidth=1;jumpStyle=none;perimeterSpacing=0;fixDash=0;entryX=0.5;entryY=1;entryDx=0;entryDy=0;" parent="1" edge="1">
          <mxGeometry width="50" height="50" relative="1" as="geometry">
            <mxPoint x="175.00999999999988" y="327.04999999999995" as="sourcePoint" />
            <mxPoint x="175.00999999999988" y="307.04999999999995" as="targetPoint" />
          </mxGeometry>
        </mxCell>
        <mxCell id="T4gieY2xEMDl2hnRcUfN-118" value="" style="endArrow=none;html=1;rounded=0;strokeWidth=1;jumpStyle=none;perimeterSpacing=0;fixDash=0;" parent="1" edge="1">
          <mxGeometry width="50" height="50" relative="1" as="geometry">
            <mxPoint x="175.67999999999995" y="390" as="sourcePoint" />
            <mxPoint x="175.67999999999995" y="370" as="targetPoint" />
          </mxGeometry>
        </mxCell>
        <mxCell id="T4gieY2xEMDl2hnRcUfN-119" value="" style="endArrow=none;html=1;rounded=0;strokeWidth=1;jumpStyle=none;perimeterSpacing=0;fixDash=0;entryX=0.5;entryY=1;entryDx=0;entryDy=0;" parent="1" edge="1">
          <mxGeometry width="50" height="50" relative="1" as="geometry">
            <mxPoint x="175.11249999999995" y="419.6325" as="sourcePoint" />
            <mxPoint x="175.11249999999995" y="399.6325" as="targetPoint" />
          </mxGeometry>
        </mxCell>
        <mxCell id="T4gieY2xEMDl2hnRcUfN-120" value="" style="endArrow=none;html=1;rounded=0;strokeWidth=1;jumpStyle=none;perimeterSpacing=0;fixDash=0;entryX=0.5;entryY=1;entryDx=0;entryDy=0;" parent="1" edge="1">
          <mxGeometry width="50" height="50" relative="1" as="geometry">
            <mxPoint x="175.1249999999999" y="449.165" as="sourcePoint" />
            <mxPoint x="175.1249999999999" y="429.165" as="targetPoint" />
          </mxGeometry>
        </mxCell>
        <mxCell id="T4gieY2xEMDl2hnRcUfN-121" value="" style="endArrow=none;html=1;rounded=0;strokeWidth=1;jumpStyle=none;perimeterSpacing=0;fixDash=0;entryX=0.5;entryY=1;entryDx=0;entryDy=0;" parent="1" edge="1">
          <mxGeometry width="50" height="50" relative="1" as="geometry">
            <mxPoint x="175.1149999999999" y="478.69499999999994" as="sourcePoint" />
            <mxPoint x="175.1149999999999" y="458.695" as="targetPoint" />
          </mxGeometry>
        </mxCell>
        <mxCell id="T4gieY2xEMDl2hnRcUfN-122" value="" style="endArrow=none;html=1;rounded=0;strokeWidth=1;jumpStyle=none;perimeterSpacing=0;fixDash=0;entryX=0.5;entryY=1;entryDx=0;entryDy=0;" parent="1" edge="1">
          <mxGeometry width="50" height="50" relative="1" as="geometry">
            <mxPoint x="175.12749999999994" y="508.22749999999996" as="sourcePoint" />
            <mxPoint x="175.12749999999994" y="488.22749999999996" as="targetPoint" />
          </mxGeometry>
        </mxCell>
        <mxCell id="T4gieY2xEMDl2hnRcUfN-123" value="" style="endArrow=none;html=1;rounded=0;strokeWidth=1;jumpStyle=none;perimeterSpacing=0;fixDash=0;entryX=0.5;entryY=1;entryDx=0;entryDy=0;" parent="1" edge="1">
          <mxGeometry width="50" height="50" relative="1" as="geometry">
            <mxPoint x="175.11749999999995" y="596.7975" as="sourcePoint" />
            <mxPoint x="175.11749999999995" y="576.7975" as="targetPoint" />
          </mxGeometry>
        </mxCell>
        <mxCell id="T4gieY2xEMDl2hnRcUfN-124" value="" style="endArrow=none;html=1;rounded=0;strokeWidth=1;jumpStyle=none;perimeterSpacing=0;fixDash=0;entryX=0.5;entryY=1;entryDx=0;entryDy=0;" parent="1" edge="1">
          <mxGeometry width="50" height="50" relative="1" as="geometry">
            <mxPoint x="174.99749999999995" y="537.5174999999999" as="sourcePoint" />
            <mxPoint x="174.99749999999995" y="517.5174999999999" as="targetPoint" />
          </mxGeometry>
        </mxCell>
        <mxCell id="T4gieY2xEMDl2hnRcUfN-125" value="" style="endArrow=none;html=1;rounded=0;strokeWidth=1;jumpStyle=none;perimeterSpacing=0;fixDash=0;entryX=0.5;entryY=1;entryDx=0;entryDy=0;" parent="1" edge="1">
          <mxGeometry width="50" height="50" relative="1" as="geometry">
            <mxPoint x="175.00999999999988" y="567.05" as="sourcePoint" />
            <mxPoint x="175.00999999999988" y="547.05" as="targetPoint" />
          </mxGeometry>
        </mxCell>
        <mxCell id="T4gieY2xEMDl2hnRcUfN-126" value="" style="endArrow=none;html=1;rounded=0;strokeWidth=1;jumpStyle=none;perimeterSpacing=0;fixDash=0;" parent="1" edge="1">
          <mxGeometry width="50" height="50" relative="1" as="geometry">
            <mxPoint x="295.67999999999984" y="150" as="sourcePoint" />
            <mxPoint x="295.67999999999984" y="130" as="targetPoint" />
          </mxGeometry>
        </mxCell>
        <mxCell id="T4gieY2xEMDl2hnRcUfN-127" value="" style="endArrow=none;html=1;rounded=0;strokeWidth=1;jumpStyle=none;perimeterSpacing=0;fixDash=0;entryX=0.5;entryY=1;entryDx=0;entryDy=0;" parent="1" edge="1">
          <mxGeometry width="50" height="50" relative="1" as="geometry">
            <mxPoint x="295.11249999999995" y="179.6325" as="sourcePoint" />
            <mxPoint x="295.11249999999995" y="159.6325" as="targetPoint" />
          </mxGeometry>
        </mxCell>
        <mxCell id="T4gieY2xEMDl2hnRcUfN-128" value="" style="endArrow=none;html=1;rounded=0;strokeWidth=1;jumpStyle=none;perimeterSpacing=0;fixDash=0;entryX=0.5;entryY=1;entryDx=0;entryDy=0;" parent="1" edge="1">
          <mxGeometry width="50" height="50" relative="1" as="geometry">
            <mxPoint x="295.125" y="209.16500000000002" as="sourcePoint" />
            <mxPoint x="295.125" y="189.16500000000002" as="targetPoint" />
          </mxGeometry>
        </mxCell>
        <mxCell id="T4gieY2xEMDl2hnRcUfN-129" value="" style="endArrow=none;html=1;rounded=0;strokeWidth=1;jumpStyle=none;perimeterSpacing=0;fixDash=0;entryX=0.5;entryY=1;entryDx=0;entryDy=0;" parent="1" edge="1">
          <mxGeometry width="50" height="50" relative="1" as="geometry">
            <mxPoint x="295.1149999999998" y="238.69499999999994" as="sourcePoint" />
            <mxPoint x="295.1149999999998" y="218.695" as="targetPoint" />
          </mxGeometry>
        </mxCell>
        <mxCell id="T4gieY2xEMDl2hnRcUfN-130" value="" style="endArrow=none;html=1;rounded=0;strokeWidth=1;jumpStyle=none;perimeterSpacing=0;fixDash=0;entryX=0.5;entryY=1;entryDx=0;entryDy=0;" parent="1" edge="1">
          <mxGeometry width="50" height="50" relative="1" as="geometry">
            <mxPoint x="295.12750000000005" y="268.22749999999996" as="sourcePoint" />
            <mxPoint x="295.12750000000005" y="248.22749999999996" as="targetPoint" />
          </mxGeometry>
        </mxCell>
        <mxCell id="T4gieY2xEMDl2hnRcUfN-131" value="" style="endArrow=none;html=1;rounded=0;strokeWidth=1;jumpStyle=none;perimeterSpacing=0;fixDash=0;entryX=0.5;entryY=1;entryDx=0;entryDy=0;" parent="1" edge="1">
          <mxGeometry width="50" height="50" relative="1" as="geometry">
            <mxPoint x="295.11749999999984" y="356.7975" as="sourcePoint" />
            <mxPoint x="295.11749999999984" y="336.7975" as="targetPoint" />
          </mxGeometry>
        </mxCell>
        <mxCell id="T4gieY2xEMDl2hnRcUfN-132" value="" style="endArrow=none;html=1;rounded=0;strokeWidth=1;jumpStyle=none;perimeterSpacing=0;fixDash=0;entryX=0.5;entryY=1;entryDx=0;entryDy=0;" parent="1" edge="1">
          <mxGeometry width="50" height="50" relative="1" as="geometry">
            <mxPoint x="294.99749999999995" y="297.5174999999999" as="sourcePoint" />
            <mxPoint x="294.99749999999995" y="277.5174999999999" as="targetPoint" />
          </mxGeometry>
        </mxCell>
        <mxCell id="T4gieY2xEMDl2hnRcUfN-133" value="" style="endArrow=none;html=1;rounded=0;strokeWidth=1;jumpStyle=none;perimeterSpacing=0;fixDash=0;entryX=0.5;entryY=1;entryDx=0;entryDy=0;" parent="1" edge="1">
          <mxGeometry width="50" height="50" relative="1" as="geometry">
            <mxPoint x="295.00999999999976" y="327.04999999999995" as="sourcePoint" />
            <mxPoint x="295.00999999999976" y="307.04999999999995" as="targetPoint" />
          </mxGeometry>
        </mxCell>
        <mxCell id="T4gieY2xEMDl2hnRcUfN-134" value="" style="endArrow=none;html=1;rounded=0;strokeWidth=1;jumpStyle=none;perimeterSpacing=0;fixDash=0;" parent="1" edge="1">
          <mxGeometry width="50" height="50" relative="1" as="geometry">
            <mxPoint x="295.67999999999984" y="390" as="sourcePoint" />
            <mxPoint x="295.67999999999984" y="370" as="targetPoint" />
          </mxGeometry>
        </mxCell>
        <mxCell id="T4gieY2xEMDl2hnRcUfN-135" value="" style="endArrow=none;html=1;rounded=0;strokeWidth=1;jumpStyle=none;perimeterSpacing=0;fixDash=0;entryX=0.5;entryY=1;entryDx=0;entryDy=0;" parent="1" edge="1">
          <mxGeometry width="50" height="50" relative="1" as="geometry">
            <mxPoint x="295.11249999999995" y="419.6325" as="sourcePoint" />
            <mxPoint x="295.11249999999995" y="399.6325" as="targetPoint" />
          </mxGeometry>
        </mxCell>
        <mxCell id="T4gieY2xEMDl2hnRcUfN-136" value="" style="endArrow=none;html=1;rounded=0;strokeWidth=1;jumpStyle=none;perimeterSpacing=0;fixDash=0;entryX=0.5;entryY=1;entryDx=0;entryDy=0;" parent="1" edge="1">
          <mxGeometry width="50" height="50" relative="1" as="geometry">
            <mxPoint x="295.125" y="449.165" as="sourcePoint" />
            <mxPoint x="295.125" y="429.165" as="targetPoint" />
          </mxGeometry>
        </mxCell>
        <mxCell id="T4gieY2xEMDl2hnRcUfN-137" value="" style="endArrow=none;html=1;rounded=0;strokeWidth=1;jumpStyle=none;perimeterSpacing=0;fixDash=0;entryX=0.5;entryY=1;entryDx=0;entryDy=0;" parent="1" edge="1">
          <mxGeometry width="50" height="50" relative="1" as="geometry">
            <mxPoint x="295.1149999999998" y="478.69499999999994" as="sourcePoint" />
            <mxPoint x="295.1149999999998" y="458.695" as="targetPoint" />
          </mxGeometry>
        </mxCell>
        <mxCell id="T4gieY2xEMDl2hnRcUfN-138" value="" style="endArrow=none;html=1;rounded=0;strokeWidth=1;jumpStyle=none;perimeterSpacing=0;fixDash=0;entryX=0.5;entryY=1;entryDx=0;entryDy=0;" parent="1" edge="1">
          <mxGeometry width="50" height="50" relative="1" as="geometry">
            <mxPoint x="295.12750000000005" y="508.22749999999996" as="sourcePoint" />
            <mxPoint x="295.12750000000005" y="488.22749999999996" as="targetPoint" />
          </mxGeometry>
        </mxCell>
        <mxCell id="T4gieY2xEMDl2hnRcUfN-139" value="" style="endArrow=none;html=1;rounded=0;strokeWidth=1;jumpStyle=none;perimeterSpacing=0;fixDash=0;entryX=0.5;entryY=1;entryDx=0;entryDy=0;" parent="1" edge="1">
          <mxGeometry width="50" height="50" relative="1" as="geometry">
            <mxPoint x="295.11749999999984" y="596.7975" as="sourcePoint" />
            <mxPoint x="295.11749999999984" y="576.7975" as="targetPoint" />
          </mxGeometry>
        </mxCell>
        <mxCell id="T4gieY2xEMDl2hnRcUfN-140" value="" style="endArrow=none;html=1;rounded=0;strokeWidth=1;jumpStyle=none;perimeterSpacing=0;fixDash=0;entryX=0.5;entryY=1;entryDx=0;entryDy=0;" parent="1" edge="1">
          <mxGeometry width="50" height="50" relative="1" as="geometry">
            <mxPoint x="294.99749999999995" y="537.5174999999999" as="sourcePoint" />
            <mxPoint x="294.99749999999995" y="517.5174999999999" as="targetPoint" />
          </mxGeometry>
        </mxCell>
        <mxCell id="T4gieY2xEMDl2hnRcUfN-141" value="" style="endArrow=none;html=1;rounded=0;strokeWidth=1;jumpStyle=none;perimeterSpacing=0;fixDash=0;entryX=0.5;entryY=1;entryDx=0;entryDy=0;" parent="1" edge="1">
          <mxGeometry width="50" height="50" relative="1" as="geometry">
            <mxPoint x="295.00999999999976" y="567.05" as="sourcePoint" />
            <mxPoint x="295.00999999999976" y="547.05" as="targetPoint" />
          </mxGeometry>
        </mxCell>
        <mxCell id="T4gieY2xEMDl2hnRcUfN-142" value="" style="endArrow=none;html=1;rounded=0;strokeWidth=1;jumpStyle=none;perimeterSpacing=0;fixDash=0;" parent="1" edge="1">
          <mxGeometry width="50" height="50" relative="1" as="geometry">
            <mxPoint x="435.25999999999976" y="150" as="sourcePoint" />
            <mxPoint x="435.25999999999976" y="130" as="targetPoint" />
          </mxGeometry>
        </mxCell>
        <mxCell id="T4gieY2xEMDl2hnRcUfN-143" value="" style="endArrow=none;html=1;rounded=0;strokeWidth=1;jumpStyle=none;perimeterSpacing=0;fixDash=0;entryX=0.5;entryY=1;entryDx=0;entryDy=0;" parent="1" edge="1">
          <mxGeometry width="50" height="50" relative="1" as="geometry">
            <mxPoint x="434.6924999999999" y="179.6325" as="sourcePoint" />
            <mxPoint x="434.6924999999999" y="159.6325" as="targetPoint" />
          </mxGeometry>
        </mxCell>
        <mxCell id="T4gieY2xEMDl2hnRcUfN-144" value="" style="endArrow=none;html=1;rounded=0;strokeWidth=1;jumpStyle=none;perimeterSpacing=0;fixDash=0;entryX=0.5;entryY=1;entryDx=0;entryDy=0;" parent="1" edge="1">
          <mxGeometry width="50" height="50" relative="1" as="geometry">
            <mxPoint x="434.7049999999999" y="209.16500000000002" as="sourcePoint" />
            <mxPoint x="434.7049999999999" y="189.16500000000002" as="targetPoint" />
          </mxGeometry>
        </mxCell>
        <mxCell id="T4gieY2xEMDl2hnRcUfN-145" value="" style="endArrow=none;html=1;rounded=0;strokeWidth=1;jumpStyle=none;perimeterSpacing=0;fixDash=0;entryX=0.5;entryY=1;entryDx=0;entryDy=0;" parent="1" edge="1">
          <mxGeometry width="50" height="50" relative="1" as="geometry">
            <mxPoint x="434.6949999999997" y="238.69499999999994" as="sourcePoint" />
            <mxPoint x="434.6949999999997" y="218.695" as="targetPoint" />
          </mxGeometry>
        </mxCell>
        <mxCell id="T4gieY2xEMDl2hnRcUfN-146" value="" style="endArrow=none;html=1;rounded=0;strokeWidth=1;jumpStyle=none;perimeterSpacing=0;fixDash=0;entryX=0.5;entryY=1;entryDx=0;entryDy=0;" parent="1" edge="1">
          <mxGeometry width="50" height="50" relative="1" as="geometry">
            <mxPoint x="434.7075" y="268.22749999999996" as="sourcePoint" />
            <mxPoint x="434.7075" y="248.22749999999996" as="targetPoint" />
          </mxGeometry>
        </mxCell>
        <mxCell id="T4gieY2xEMDl2hnRcUfN-147" value="" style="endArrow=none;html=1;rounded=0;strokeWidth=1;jumpStyle=none;perimeterSpacing=0;fixDash=0;entryX=0.5;entryY=1;entryDx=0;entryDy=0;" parent="1" edge="1">
          <mxGeometry width="50" height="50" relative="1" as="geometry">
            <mxPoint x="434.69749999999976" y="356.7975" as="sourcePoint" />
            <mxPoint x="434.69749999999976" y="336.7975" as="targetPoint" />
          </mxGeometry>
        </mxCell>
        <mxCell id="T4gieY2xEMDl2hnRcUfN-148" value="" style="endArrow=none;html=1;rounded=0;strokeWidth=1;jumpStyle=none;perimeterSpacing=0;fixDash=0;entryX=0.5;entryY=1;entryDx=0;entryDy=0;" parent="1" edge="1">
          <mxGeometry width="50" height="50" relative="1" as="geometry">
            <mxPoint x="434.5774999999999" y="297.5174999999999" as="sourcePoint" />
            <mxPoint x="434.5774999999999" y="277.5174999999999" as="targetPoint" />
          </mxGeometry>
        </mxCell>
        <mxCell id="T4gieY2xEMDl2hnRcUfN-149" value="" style="endArrow=none;html=1;rounded=0;strokeWidth=1;jumpStyle=none;perimeterSpacing=0;fixDash=0;entryX=0.5;entryY=1;entryDx=0;entryDy=0;" parent="1" edge="1">
          <mxGeometry width="50" height="50" relative="1" as="geometry">
            <mxPoint x="434.5899999999997" y="327.04999999999995" as="sourcePoint" />
            <mxPoint x="434.5899999999997" y="307.04999999999995" as="targetPoint" />
          </mxGeometry>
        </mxCell>
        <mxCell id="T4gieY2xEMDl2hnRcUfN-150" value="" style="endArrow=none;html=1;rounded=0;strokeWidth=1;jumpStyle=none;perimeterSpacing=0;fixDash=0;" parent="1" source="T4gieY2xEMDl2hnRcUfN-175" edge="1">
          <mxGeometry width="50" height="50" relative="1" as="geometry">
            <mxPoint x="435.25999999999976" y="390" as="sourcePoint" />
            <mxPoint x="435.25999999999976" y="370" as="targetPoint" />
          </mxGeometry>
        </mxCell>
        <mxCell id="T4gieY2xEMDl2hnRcUfN-151" value="" style="endArrow=none;html=1;rounded=0;strokeWidth=1;jumpStyle=none;perimeterSpacing=0;fixDash=0;entryX=0.5;entryY=1;entryDx=0;entryDy=0;" parent="1" edge="1">
          <mxGeometry width="50" height="50" relative="1" as="geometry">
            <mxPoint x="434.6924999999999" y="419.6325" as="sourcePoint" />
            <mxPoint x="434.6924999999999" y="399.6325" as="targetPoint" />
          </mxGeometry>
        </mxCell>
        <mxCell id="T4gieY2xEMDl2hnRcUfN-152" value="" style="endArrow=none;html=1;rounded=0;strokeWidth=1;jumpStyle=none;perimeterSpacing=0;fixDash=0;entryX=0.5;entryY=1;entryDx=0;entryDy=0;" parent="1" edge="1">
          <mxGeometry width="50" height="50" relative="1" as="geometry">
            <mxPoint x="434.7049999999999" y="449.165" as="sourcePoint" />
            <mxPoint x="434.7049999999999" y="429.165" as="targetPoint" />
          </mxGeometry>
        </mxCell>
        <mxCell id="T4gieY2xEMDl2hnRcUfN-153" value="" style="endArrow=none;html=1;rounded=0;strokeWidth=1;jumpStyle=none;perimeterSpacing=0;fixDash=0;entryX=0.5;entryY=1;entryDx=0;entryDy=0;" parent="1" edge="1">
          <mxGeometry width="50" height="50" relative="1" as="geometry">
            <mxPoint x="434.6949999999997" y="478.69499999999994" as="sourcePoint" />
            <mxPoint x="434.6949999999997" y="458.695" as="targetPoint" />
          </mxGeometry>
        </mxCell>
        <mxCell id="T4gieY2xEMDl2hnRcUfN-154" value="" style="endArrow=none;html=1;rounded=0;strokeWidth=1;jumpStyle=none;perimeterSpacing=0;fixDash=0;entryX=0.5;entryY=1;entryDx=0;entryDy=0;" parent="1" edge="1">
          <mxGeometry width="50" height="50" relative="1" as="geometry">
            <mxPoint x="434.7075" y="508.22749999999996" as="sourcePoint" />
            <mxPoint x="434.7075" y="488.22749999999996" as="targetPoint" />
          </mxGeometry>
        </mxCell>
        <mxCell id="T4gieY2xEMDl2hnRcUfN-155" value="" style="endArrow=none;html=1;rounded=0;strokeWidth=1;jumpStyle=none;perimeterSpacing=0;fixDash=0;entryX=0.5;entryY=1;entryDx=0;entryDy=0;" parent="1" edge="1">
          <mxGeometry width="50" height="50" relative="1" as="geometry">
            <mxPoint x="434.69749999999976" y="596.7975" as="sourcePoint" />
            <mxPoint x="434.69749999999976" y="576.7975" as="targetPoint" />
          </mxGeometry>
        </mxCell>
        <mxCell id="T4gieY2xEMDl2hnRcUfN-156" value="" style="endArrow=none;html=1;rounded=0;strokeWidth=1;jumpStyle=none;perimeterSpacing=0;fixDash=0;entryX=0.5;entryY=1;entryDx=0;entryDy=0;" parent="1" edge="1">
          <mxGeometry width="50" height="50" relative="1" as="geometry">
            <mxPoint x="434.5774999999999" y="537.5174999999999" as="sourcePoint" />
            <mxPoint x="434.5774999999999" y="517.5174999999999" as="targetPoint" />
          </mxGeometry>
        </mxCell>
        <mxCell id="T4gieY2xEMDl2hnRcUfN-157" value="" style="endArrow=none;html=1;rounded=0;strokeWidth=1;jumpStyle=none;perimeterSpacing=0;fixDash=0;entryX=0.5;entryY=1;entryDx=0;entryDy=0;" parent="1" edge="1">
          <mxGeometry width="50" height="50" relative="1" as="geometry">
            <mxPoint x="434.5899999999997" y="567.05" as="sourcePoint" />
            <mxPoint x="434.5899999999997" y="547.05" as="targetPoint" />
          </mxGeometry>
        </mxCell>
        <mxCell id="T4gieY2xEMDl2hnRcUfN-158" value="Gitlab&lt;br&gt;CI/CD" style="whiteSpace=wrap;html=1;" parent="1" vertex="1">
          <mxGeometry x="135" y="79.37" width="80" height="39.37" as="geometry" />
        </mxCell>
        <mxCell id="T4gieY2xEMDl2hnRcUfN-159" value="Тестовое&lt;br&gt;окружение" style="whiteSpace=wrap;html=1;" parent="1" vertex="1">
          <mxGeometry x="255" y="79.37" width="80" height="39.37" as="geometry" />
        </mxCell>
        <mxCell id="T4gieY2xEMDl2hnRcUfN-160" value="Сборщик&lt;br&gt;дистрибутива&lt;br&gt;системы" style="whiteSpace=wrap;html=1;" parent="1" vertex="1">
          <mxGeometry x="375" y="60" width="120" height="58.74" as="geometry" />
        </mxCell>
        <mxCell id="T4gieY2xEMDl2hnRcUfN-161" value="Размещение дистрибутива на сайте" style="whiteSpace=wrap;html=1;" parent="1" vertex="1">
          <mxGeometry x="535" y="60" width="120" height="58.74" as="geometry" />
        </mxCell>
        <mxCell id="T4gieY2xEMDl2hnRcUfN-162" value="" style="endArrow=blockThin;html=1;rounded=0;endFill=1;exitX=1;exitY=1;exitDx=0;exitDy=0;entryX=0;entryY=0;entryDx=0;entryDy=0;" parent="1" source="T4gieY2xEMDl2hnRcUfN-93" target="T4gieY2xEMDl2hnRcUfN-165" edge="1">
          <mxGeometry width="50" height="50" relative="1" as="geometry">
            <mxPoint x="65" y="203" as="sourcePoint" />
            <mxPoint x="165" y="202" as="targetPoint" />
          </mxGeometry>
        </mxCell>
        <mxCell id="T4gieY2xEMDl2hnRcUfN-163" value="Добавление&lt;br&gt;версии" style="edgeLabel;html=1;align=center;verticalAlign=middle;resizable=0;points=[];" parent="T4gieY2xEMDl2hnRcUfN-162" vertex="1" connectable="0">
          <mxGeometry x="0.3823" relative="1" as="geometry">
            <mxPoint x="-23" y="-22" as="offset" />
          </mxGeometry>
        </mxCell>
        <mxCell id="T4gieY2xEMDl2hnRcUfN-93" value="" style="whiteSpace=wrap;html=1;" parent="1" vertex="1">
          <mxGeometry x="50.47000000000003" y="150" width="9.85" height="50" as="geometry" />
        </mxCell>
        <mxCell id="T4gieY2xEMDl2hnRcUfN-165" value="" style="whiteSpace=wrap;html=1;" parent="1" vertex="1">
          <mxGeometry x="170.08000000000004" y="200.16" width="9.85" height="279.84" as="geometry" />
        </mxCell>
        <mxCell id="T4gieY2xEMDl2hnRcUfN-166" value="" style="endArrow=blockThin;html=1;rounded=0;endFill=1;exitX=1;exitY=1;exitDx=0;exitDy=0;entryX=0;entryY=0;entryDx=0;entryDy=0;" parent="1" edge="1">
          <mxGeometry width="50" height="50" relative="1" as="geometry">
            <mxPoint x="179.93000000000006" y="217.16" as="sourcePoint" />
            <mxPoint x="289.93000000000006" y="217.16" as="targetPoint" />
          </mxGeometry>
        </mxCell>
        <mxCell id="T4gieY2xEMDl2hnRcUfN-167" value="Запуск сборки&lt;br&gt;и тестирования" style="edgeLabel;html=1;align=center;verticalAlign=middle;resizable=0;points=[];" parent="T4gieY2xEMDl2hnRcUfN-166" vertex="1" connectable="0">
          <mxGeometry x="0.3823" relative="1" as="geometry">
            <mxPoint x="-21" y="-17" as="offset" />
          </mxGeometry>
        </mxCell>
        <mxCell id="T4gieY2xEMDl2hnRcUfN-168" value="" style="whiteSpace=wrap;html=1;" parent="1" vertex="1">
          <mxGeometry x="290.0799999999999" y="217.16" width="9.85" height="82.84" as="geometry" />
        </mxCell>
        <mxCell id="T4gieY2xEMDl2hnRcUfN-169" value="" style="endArrow=openThin;html=1;rounded=0;endFill=0;exitX=0;exitY=0.5;exitDx=0;exitDy=0;entryX=1.056;entryY=0.21;entryDx=0;entryDy=0;entryPerimeter=0;" parent="1" source="T4gieY2xEMDl2hnRcUfN-168" target="T4gieY2xEMDl2hnRcUfN-165" edge="1">
          <mxGeometry width="50" height="50" relative="1" as="geometry">
            <mxPoint x="410.8092499999998" y="256.53314999999986" as="sourcePoint" />
            <mxPoint x="179.92999999999995" y="256.76999999999987" as="targetPoint" />
          </mxGeometry>
        </mxCell>
        <mxCell id="T4gieY2xEMDl2hnRcUfN-170" value="Отчёт&lt;br&gt;о сборке" style="edgeLabel;html=1;align=center;verticalAlign=middle;resizable=0;points=[];" parent="T4gieY2xEMDl2hnRcUfN-169" vertex="1" connectable="0">
          <mxGeometry x="0.3823" relative="1" as="geometry">
            <mxPoint x="21" y="-17" as="offset" />
          </mxGeometry>
        </mxCell>
        <mxCell id="T4gieY2xEMDl2hnRcUfN-171" value="" style="endArrow=openThin;html=1;rounded=0;endFill=0;exitX=0;exitY=1;exitDx=0;exitDy=0;" parent="1" source="T4gieY2xEMDl2hnRcUfN-168" edge="1">
          <mxGeometry width="50" height="50" relative="1" as="geometry">
            <mxPoint x="290" y="300.23" as="sourcePoint" />
            <mxPoint x="179.92999999999995" y="299.9999999999999" as="targetPoint" />
          </mxGeometry>
        </mxCell>
        <mxCell id="T4gieY2xEMDl2hnRcUfN-172" value="Отчёт&lt;br&gt;о тестировании" style="edgeLabel;html=1;align=center;verticalAlign=middle;resizable=0;points=[];" parent="T4gieY2xEMDl2hnRcUfN-171" vertex="1" connectable="0">
          <mxGeometry x="0.3823" relative="1" as="geometry">
            <mxPoint x="21" y="-17" as="offset" />
          </mxGeometry>
        </mxCell>
        <mxCell id="T4gieY2xEMDl2hnRcUfN-173" value="" style="endArrow=blockThin;html=1;rounded=0;endFill=1;exitX=1;exitY=1;exitDx=0;exitDy=0;entryX=0;entryY=0;entryDx=0;entryDy=0;" parent="1" target="T4gieY2xEMDl2hnRcUfN-175" edge="1">
          <mxGeometry width="50" height="50" relative="1" as="geometry">
            <mxPoint x="180.08000000000004" y="350" as="sourcePoint" />
            <mxPoint x="290.0799999999999" y="350" as="targetPoint" />
          </mxGeometry>
        </mxCell>
        <mxCell id="T4gieY2xEMDl2hnRcUfN-174" value="Запуск сборки дистрибутива" style="edgeLabel;html=1;align=center;verticalAlign=middle;resizable=0;points=[];" parent="T4gieY2xEMDl2hnRcUfN-173" vertex="1" connectable="0">
          <mxGeometry x="0.3823" relative="1" as="geometry">
            <mxPoint x="-54" y="-12" as="offset" />
          </mxGeometry>
        </mxCell>
        <mxCell id="T4gieY2xEMDl2hnRcUfN-176" value="" style="endArrow=none;html=1;rounded=0;strokeWidth=1;jumpStyle=none;perimeterSpacing=0;fixDash=0;" parent="1" target="T4gieY2xEMDl2hnRcUfN-175" edge="1">
          <mxGeometry width="50" height="50" relative="1" as="geometry">
            <mxPoint x="435.25999999999976" y="390" as="sourcePoint" />
            <mxPoint x="435.25999999999976" y="370" as="targetPoint" />
          </mxGeometry>
        </mxCell>
        <mxCell id="T4gieY2xEMDl2hnRcUfN-175" value="" style="whiteSpace=wrap;html=1;" parent="1" vertex="1">
          <mxGeometry x="430.0799999999999" y="350" width="9.85" height="70" as="geometry" />
        </mxCell>
        <mxCell id="T4gieY2xEMDl2hnRcUfN-177" value="" style="endArrow=openThin;html=1;rounded=0;endFill=0;exitX=0;exitY=1;exitDx=0;exitDy=0;entryX=1.005;entryY=0.788;entryDx=0;entryDy=0;entryPerimeter=0;" parent="1" source="T4gieY2xEMDl2hnRcUfN-175" target="T4gieY2xEMDl2hnRcUfN-165" edge="1">
          <mxGeometry width="50" height="50" relative="1" as="geometry">
            <mxPoint x="355.06999999999994" y="420" as="sourcePoint" />
            <mxPoint x="245" y="419.9999999999999" as="targetPoint" />
          </mxGeometry>
        </mxCell>
        <mxCell id="T4gieY2xEMDl2hnRcUfN-178" value="Отчёт о дистрибутиве" style="edgeLabel;html=1;align=center;verticalAlign=middle;resizable=0;points=[];" parent="T4gieY2xEMDl2hnRcUfN-177" vertex="1" connectable="0">
          <mxGeometry x="0.3823" relative="1" as="geometry">
            <mxPoint x="43" y="-12" as="offset" />
          </mxGeometry>
        </mxCell>
        <mxCell id="T4gieY2xEMDl2hnRcUfN-179" value="" style="endArrow=blockThin;html=1;rounded=0;endFill=1;exitX=1;exitY=1;exitDx=0;exitDy=0;entryX=0;entryY=0;entryDx=0;entryDy=0;" parent="1" source="T4gieY2xEMDl2hnRcUfN-175" target="T4gieY2xEMDl2hnRcUfN-181" edge="1">
          <mxGeometry width="50" height="50" relative="1" as="geometry">
            <mxPoint x="455" y="420" as="sourcePoint" />
            <mxPoint x="585" y="420" as="targetPoint" />
          </mxGeometry>
        </mxCell>
        <mxCell id="T4gieY2xEMDl2hnRcUfN-180" value="Запуск размещения&lt;br&gt;дистрибутива на сайте" style="edgeLabel;html=1;align=center;verticalAlign=middle;resizable=0;points=[];" parent="T4gieY2xEMDl2hnRcUfN-179" vertex="1" connectable="0">
          <mxGeometry x="0.3823" relative="1" as="geometry">
            <mxPoint x="-29" y="-18" as="offset" />
          </mxGeometry>
        </mxCell>
        <mxCell id="T4gieY2xEMDl2hnRcUfN-182" value="" style="endArrow=none;html=1;rounded=0;strokeWidth=1;jumpStyle=none;perimeterSpacing=0;fixDash=0;entryX=0.5;entryY=1;entryDx=0;entryDy=0;" parent="1" target="T4gieY2xEMDl2hnRcUfN-181" edge="1">
          <mxGeometry width="50" height="50" relative="1" as="geometry">
            <mxPoint x="594.685" y="449.165" as="sourcePoint" />
            <mxPoint x="594.685" y="429.165" as="targetPoint" />
          </mxGeometry>
        </mxCell>
        <mxCell id="T4gieY2xEMDl2hnRcUfN-181" value="" style="whiteSpace=wrap;html=1;" parent="1" vertex="1">
          <mxGeometry x="590.0799999999999" y="420" width="9.85" height="60" as="geometry" />
        </mxCell>
        <mxCell id="T4gieY2xEMDl2hnRcUfN-183" value="" style="endArrow=openThin;html=1;rounded=0;endFill=0;exitX=0;exitY=1;exitDx=0;exitDy=0;entryX=1;entryY=1;entryDx=0;entryDy=0;" parent="1" source="T4gieY2xEMDl2hnRcUfN-181" target="T4gieY2xEMDl2hnRcUfN-165" edge="1">
          <mxGeometry width="50" height="50" relative="1" as="geometry">
            <mxPoint x="495" y="480" as="sourcePoint" />
            <mxPoint x="245" y="480" as="targetPoint" />
          </mxGeometry>
        </mxCell>
        <mxCell id="T4gieY2xEMDl2hnRcUfN-184" value="Отчёт о размещении" style="edgeLabel;html=1;align=center;verticalAlign=middle;resizable=0;points=[];" parent="T4gieY2xEMDl2hnRcUfN-183" vertex="1" connectable="0">
          <mxGeometry x="0.3823" relative="1" as="geometry">
            <mxPoint x="58" y="-12" as="offset" />
          </mxGeometry>
        </mxCell>
        <mxCell id="T4gieY2xEMDl2hnRcUfN-185" value="" style="whiteSpace=wrap;html=1;" parent="1" vertex="1">
          <mxGeometry x="50.47000000000003" y="480" width="9.85" height="50" as="geometry" />
        </mxCell>
        <mxCell id="T4gieY2xEMDl2hnRcUfN-187" value="" style="endArrow=openThin;html=1;rounded=0;endFill=0;exitX=0;exitY=1;exitDx=0;exitDy=0;entryX=1;entryY=0;entryDx=0;entryDy=0;" parent="1" source="T4gieY2xEMDl2hnRcUfN-165" target="T4gieY2xEMDl2hnRcUfN-185" edge="1">
          <mxGeometry width="50" height="50" relative="1" as="geometry">
            <mxPoint x="165" y="449.79" as="sourcePoint" />
            <mxPoint x="-245" y="449.79" as="targetPoint" />
          </mxGeometry>
        </mxCell>
        <mxCell id="T4gieY2xEMDl2hnRcUfN-188" value="Отчёт о&lt;br&gt;работе" style="edgeLabel;html=1;align=center;verticalAlign=middle;resizable=0;points=[];" parent="T4gieY2xEMDl2hnRcUfN-187" vertex="1" connectable="0">
          <mxGeometry x="0.3823" relative="1" as="geometry">
            <mxPoint x="21" y="-20" as="offset" />
          </mxGeometry>
        </mxCell>
      </root>
    </mxGraphModel>
  </diagram>
</mxfile>
